<svg xmlns="http://www.w3.org/2000/svg" width="1600" height="900" viewBox="0 0 1600 900">
  <defs>
    <linearGradient id="g" x1="0%" y1="0%" x2="100%" y2="100%">
      <stop offset="0%" style="stop-color:#1a0808"/>
      <stop offset="50%" style="stop-color:#0a0a0a"/>
      <stop offset="100%" style="stop-color:#0a080a"/>
    </linearGradient>
    <radialGradient id="glow" cx="50%" cy="50%" r="50%">
      <stop offset="0%" style="stop-color:#E63228;stop-opacity:0.08"/>
      <stop offset="100%" style="stop-color:#0a0a0a;stop-opacity:0"/>
    </radialGradient>
  </defs>
  <rect width="1600" height="900" fill="url(#g)"/>
  <rect width="1600" height="900" fill="url(#glow)"/>
  <!-- subtle grid -->
  <line x1="0" y1="300" x2="1600" y2="300" stroke="#161616" stroke-width="1"/>
  <line x1="0" y1="600" x2="1600" y2="600" stroke="#161616" stroke-width="1"/>
  <line x1="533" y1="0" x2="533" y2="900" stroke="#161616" stroke-width="1"/>
  <line x1="1066" y1="0" x2="1066" y2="900" stroke="#161616" stroke-width="1"/>
  <!-- bottom accent bar -->
  <rect x="0" y="896" width="1600" height="4" fill="#E63228"/>
  <!-- brand name -->
  <text x="800" y="420" font-family="Arial Black, Arial, sans-serif" font-size="96" fill="#F5F5F5" font-weight="900" text-anchor="middle" letter-spacing="8">FILMAGEM NO LAJE</text>
  <text x="800" y="490" font-family="Arial, sans-serif" font-size="22" fill="#E63228" text-anchor="middle" letter-spacing="12">PORTFÓLIO AUDIOVISUAL 2026</text>
  <text x="800" y="560" font-family="Arial, sans-serif" font-size="18" fill="#444444" text-anchor="middle" letter-spacing="4" font-style="italic">Outras formas de ver e praticar o mundo</text>
  <!-- frame corner decorations -->
  <polyline points="80,60 80,120 140,120" fill="none" stroke="#E63228" stroke-width="2"/>
  <polyline points="1520,60 1520,120 1460,120" fill="none" stroke="#E63228" stroke-width="2"/>
  <polyline points="80,840 80,780 140,780" fill="none" stroke="#E63228" stroke-width="2"/>
  <polyline points="1520,840 1520,780 1460,780" fill="none" stroke="#E63228" stroke-width="2"/>
</svg>
